<?xml version="1.0" standalone="no"?>
<!DOCTYPE svg PUBLIC "-//W3C//DTD SVG 20010904//EN"
 "http://www.w3.org/TR/2001/REC-SVG-20010904/DTD/svg10.dtd">
<svg version="1.0" xmlns="http://www.w3.org/2000/svg"
 width="300.000000pt" height="533.000000pt" viewBox="0 0 300.000000 533.000000"
 preserveAspectRatio="xMidYMid meet">
<metadata>
Created by potrace 1.10, written by Peter Selinger 2001-2011
</metadata>
<g transform="translate(0.000000,533.000000) scale(0.100000,-0.100000)"
fill="#000000" stroke="none">
<path d="M1305 3818 c-447 -31 -852 -352 -1000 -792 -206 -615 116 -1280 725
-1494 202 -71 457 -82 665 -28 115 29 357 145 495 238 96 64 236 202 299 296
371 551 208 1291 -359 1632 -221 133 -452 174 -825 148z m495 -39 c275 -63
511 -222 668 -452 310 -451 253 -1055 -134 -1443 -43 -43 -165 -144 -174 -144
-4 0 32 39 79 88 495 502 427 1344 -143 1769 -96 71 -224 136 -331 168 -165
49 -148 56 35 14z m-568 -4 c-386 -115 -687 -452 -772 -865 -30 -146 -24 -368
13 -513 106 -402 412 -708 821 -819 111 -31 418 -33 510 -5 68 21 86 17 24 -6
-169 -61 -293 -81 -468 -74 -177 7 -294 37 -455 116 -468 231 -723 754 -619
1270 89 435 417 781 848 892 142 36 219 39 98 4z m403 6 c602 -125 1004 -718
900 -1327 -41 -237 -143 -439 -308 -611 -152 -158 -247 -212 -445 -253 -307
-62 -630 11 -880 200 -385 290 -541 809 -381 1266 130 372 438 646 820 729 90
19 189 18 294 -4z"/>
<path d="M560 2710 l0 -280 104 0 c66 0 116 5 137 14 86 36 129 100 129 194 0
92 -50 157 -145 187 -19 6 -19 7 -2 16 30 17 39 55 23 94 -18 42 -58 55 -168
55 l-78 0 0 -280z m208 228 c6 -6 12 -25 12 -44 0 -44 -21 -54 -109 -54 l-71
0 0 58 0 57 78 -3 c42 -2 83 -9 90 -14z m28 -147 c104 -47 132 -173 58 -261
-41 -49 -73 -60 -169 -60 l-85 0 0 170 0 170 78 0 c53 0 90 -6 118 -19z"/>
<path d="M1440 2910 c0 -67 -1 -70 -24 -70 -13 0 -26 -7 -30 -15 -4 -11 2 -15
24 -15 l30 0 0 -156 0 -156 34 -34 c21 -21 44 -34 60 -34 34 0 34 26 1 34 -45
11 -53 39 -57 199 l-3 147 43 0 c31 0 42 4 42 15 0 11 -11 15 -43 15 l-43 0 4
70 c4 66 3 70 -17 70 -19 0 -21 -5 -21 -70z"/>
<path d="M1103 2816 c-71 -33 -106 -87 -111 -170 -6 -95 36 -165 120 -201 75
-31 173 -10 227 49 19 20 22 29 13 38 -8 8 -20 3 -47 -20 -19 -18 -48 -34 -63
-38 -15 -3 -33 -8 -41 -10 -16 -5 -91 14 -91 24 0 4 59 63 131 132 l132 124
-41 36 c-71 63 -145 75 -229 36z m175 -43 c23 -15 41 -30 40 -34 -2 -3 -56
-57 -122 -120 l-118 -113 -24 29 c-43 54 -44 133 -1 195 49 73 150 92 225 43z"/>
<path d="M1570 2635 c0 -198 1 -205 20 -205 19 0 20 7 20 121 0 138 11 174 68
217 30 23 46 27 97 27 51 0 67 -4 97 -27 57 -43 68 -79 68 -217 0 -116 1 -121
21 -121 20 0 21 3 17 138 -3 123 -5 141 -26 174 -79 127 -251 126 -333 -1 -15
-24 -15 -22 -11 37 4 58 3 62 -17 62 -21 0 -21 -3 -21 -205z"/>
<path d="M2165 2829 c-82 -31 -135 -107 -135 -195 1 -117 87 -204 202 -204 53
0 116 34 143 77 11 18 22 32 25 33 3 0 3 -25 2 -55 -4 -50 -2 -55 17 -55 21 0
21 4 21 205 0 202 0 205 -21 205 -20 0 -21 -4 -17 -60 2 -33 3 -60 1 -60 -1 0
-9 14 -18 30 -34 65 -147 106 -220 79z m145 -51 c156 -79 96 -310 -81 -310
-141 0 -214 163 -122 273 52 61 127 75 203 37z"/>
</g>
</svg>
